<svg width="300" height="300" viewBox="0 0 300 300" fill="none" xmlns="http://www.w3.org/2000/svg">
<g clip-path="url(#clip0_140_2206)">
<path d="M198.862 151.538L300 215.475V84.9L198.862 151.538Z" fill="white"/>
<path d="M0 84.9V215.475L101.138 151.538L0 84.9Z" fill="white"/>
<path d="M281.25 46.875H18.75C9.39375 46.875 1.96875 53.85 0.5625 62.8313L150 161.288L299.438 62.8313C298.031 53.85 290.606 46.875 281.25 46.875Z" fill="white"/>
<path d="M181.688 162.862L155.156 180.337C153.581 181.369 151.8 181.875 150 181.875C148.2 181.875 146.419 181.369 144.844 180.337L118.313 162.844L0.600098 237.3C2.04385 246.206 9.43135 253.125 18.7501 253.125H281.25C290.569 253.125 297.956 246.206 299.4 237.3L181.688 162.862Z" fill="white"/>
</g>
<defs>
<clipPath id="clip0_140_2206">
<rect width="300" height="300" fill="white"/>
</clipPath>
</defs>
</svg>
