<svg width="300" height="300" viewBox="0 0 300 300" fill="none" xmlns="http://www.w3.org/2000/svg">
<g clip-path="url(#clip0_140_2179)">
<path fill-rule="evenodd" clip-rule="evenodd" d="M25 0C11.1929 0 0 11.1929 0 25V275C0 288.807 11.1929 300 25 300H204.071C217.879 300 229.071 288.807 229.071 275V205.881L217.48 217.469C214.318 220.63 210.488 223.045 206.272 224.536L177.406 234.747C170.865 237.061 163.576 235.411 158.67 230.507L154.925 226.762C150.019 221.858 148.369 214.572 150.683 208.033L160.898 179.175C162.389 174.961 164.805 171.132 167.967 167.971L229.071 106.886V71H168.049C162.526 71 158.049 66.5229 158.049 61V0H25ZM35.0109 97C35.0109 92.0294 39.0404 88 44.0109 88H166.055C171.025 88 175.055 92.0294 175.055 97C175.055 101.971 171.025 106 166.055 106H44.0109C39.0404 106 35.0109 101.971 35.0109 97ZM44.0109 123C39.0404 123 35.0109 127.029 35.0109 132C35.0109 136.971 39.0404 141 44.0109 141H131.044C136.014 141 140.044 136.971 140.044 132C140.044 127.029 136.014 123 131.044 123H44.0109ZM35.0109 167C35.0109 162.029 39.0404 158 44.0109 158H131.044C136.014 158 140.044 162.029 140.044 167C140.044 171.971 136.014 176 131.044 176H44.0109C39.0404 176 35.0109 171.971 35.0109 167ZM44.0109 193C39.0404 193 35.0109 197.029 35.0109 202C35.0109 206.971 39.0404 211 44.0109 211H131.044C136.014 211 140.044 206.971 140.044 202C140.044 197.029 136.014 193 131.044 193H44.0109ZM105.033 255C105.033 250.029 109.062 246 114.033 246H167.055C172.026 246 176.055 250.029 176.055 255C176.055 259.971 172.026 264 167.055 264H114.033C109.062 264 105.033 259.971 105.033 255ZM178.071 0H175.055V53H228.071V50C228.071 22.3858 205.685 0 178.071 0ZM168.49 211.825C168.042 213.247 168.422 214.8 169.477 215.855L169.903 216.28C170.974 217.351 172.559 217.725 173.997 217.246L195.58 210.054C196.285 209.819 196.496 208.924 195.971 208.399L177.061 189.495C176.53 188.964 175.625 189.186 175.4 189.901L168.49 211.825ZM185.798 174.187L244.506 115.498L269.97 140.953L211.262 199.643L185.798 174.187ZM269.265 90.7468L256.531 103.477L281.995 128.933L294.728 116.203C301.759 109.174 301.757 97.7771 294.726 90.7488C287.696 83.7204 276.295 83.7184 269.265 90.7468Z" fill="white"/>
</g>
<defs>
<clipPath id="clip0_140_2179">
<rect width="300" height="300" fill="white"/>
</clipPath>
</defs>
</svg>
