<svg width="300" height="300" viewBox="0 0 300 300" fill="none" xmlns="http://www.w3.org/2000/svg">
<g clip-path="url(#clip0_142_2258)">
<path fill-rule="evenodd" clip-rule="evenodd" d="M5.85786 46.5857C2.10714 50.3365 0 55.4236 0 60.7279V282C0 291.941 8.05887 300 18 300H150V190C150 167.909 167.909 150 190 150H257.143V18C257.143 8.05888 249.084 0 239.143 0H60.7279C55.4235 0 50.3365 2.10713 46.5857 5.85786L5.85786 46.5857ZM42.8571 84.4361C42.8571 78.9132 47.3343 74.4361 52.8571 74.4361H204.286C209.809 74.4361 214.286 78.9132 214.286 84.4361V86.9925C214.286 92.5153 209.809 96.9925 204.286 96.9925H52.8571C47.3343 96.9925 42.8571 92.5153 42.8571 86.9925V84.4361ZM52.8574 127.444C47.3345 127.444 42.8574 131.921 42.8574 137.444V140C42.8574 145.523 47.3345 150 52.8573 150H118.572C124.094 150 128.572 145.523 128.572 140V137.444C128.572 131.921 124.094 127.444 118.572 127.444H52.8574ZM42.8574 191.579C42.8574 186.056 47.3345 181.579 52.8574 181.579H118.572C124.094 181.579 128.572 186.056 128.572 191.579V194.135C128.572 199.658 124.094 204.135 118.572 204.135H52.8573C47.3345 204.135 42.8574 199.658 42.8574 194.135V191.579ZM171.429 189.429C171.429 179.487 179.487 171.429 189.429 171.429H282C291.941 171.429 300 179.487 300 189.429V282C300 291.941 291.941 300 282 300H171.429V189.429ZM206.341 226.151C202.631 229.861 202.631 235.876 206.341 239.586L224.806 258.05C228.516 261.76 234.531 261.76 238.241 258.05L239.958 256.333L240.002 256.29L266.719 229.572C270.625 225.667 270.625 219.335 266.719 215.43L264.912 213.622C261.006 209.717 254.675 209.717 250.769 213.622L230.726 233.666L221.494 224.434C217.784 220.724 211.769 220.724 208.059 224.434L206.341 226.151Z" fill="white"/>
</g>
<defs>
<clipPath id="clip0_142_2258">
<rect width="300" height="300" fill="white"/>
</clipPath>
</defs>
</svg>
